<svg xmlns="http://www.w3.org/2000/svg" viewBox="0 0 128 128">
  <path fill="#00618A" d="M116.948 97.807c-6.863-.187-12.104.452-16.585 2.341-1.273.537-3.305.537-3.549 2.341.688.801 1.153 2.019 1.899 3.073 1.899 2.609 5.416 6.219 8.965 8.184 4.485 2.341 8.457 1.804 13.685.268 2.64-.765 5.416-2.609 7.315-4.574 1.899-1.965 2.64-4.574 2.64-8.184-.245-2.874-.563-5.684-13.37-3.449zM97.538 88.593c-.187-2.83-1.153-4.794-2.64-6.996-.563-.801-1.153-1.602-1.899-2.403-8.457-9.252-19.687-15.471-32.55-16.272-8.457-.534-16.585 1.5-23.123 6.264-5.416 3.919-9.252 10.118-10.118 18.008-.688 6.457.725 12.914 4.794 17.708 3.305 3.919 8.189 6.457 13.607 7.993 5.416 1.536 10.832 1.269 16.585.267 5.416-.8 10.832-2.609 15.471-5.684 4.64-3.075 8.189-7.726 9.389-13.607.133-.932.266-1.936.399-2.936.533-2.608-.187-1.804.48-2.542zM64 .3C28.7.3 0 28.999 0 64.3s28.7 64 64 64 64-28.7 64-64-28.7-64-64-64z"/>
  <path fill="#336791" d="M93.896 107.002c.481 1.02-1.92-.48-2.4-.801-3.36-1.681-6.72-4.32-9.601-6.721-2.24-1.681-4.32-3.84-5.28-6.4-.801-2.08-.32-4.32.96-6.4 2.56-4.32 8.641-6.4 12.801-4.64 3.52 1.44 6.4 4.64 7.68 8.48.8 2.4.32 4.8-.16 7.201-.32 1.44-.64 2.879-1.441 4.639-.32.641-.8 1.281-1.28 1.922-.48.641-.8 1.281-1.28 1.92z"/>
  <path fill="#fff" d="M64 7.28c-31.281 0-56.72 25.438-56.72 56.72S32.719 120.72 64 120.72 120.72 95.281 120.72 64 95.281 7.28 64 7.28zm22.24 49.92c0 6.4-5.12 11.52-11.52 11.52s-11.52-5.12-11.52-11.52 5.12-11.52 11.52-11.52 11.52 5.12 11.52 11.52z"/>
</svg>