<svg xmlns="http://www.w3.org/2000/svg" viewBox="0 0 128 128">
  <path fill="#00758f" d="M2.001 90.458h4.108V74.235l6.36 14.143c.75 1.712 1.777 2.317 3.792 2.317s3.042-.605 3.792-2.317l6.36-14.143v16.223h4.108V74.262c0-1.58-.632-2.345-1.846-2.739-3.227-.947-5.846.3-7.147 3.897l-5.394 12.356-5.394-12.356c-1.301-3.597-3.92-4.844-7.147-3.897-1.214.394-1.846 1.159-1.846 2.739v16.196zm31.898-13.206h4.107v8.938c-.038.485.156 1.625 2.406 1.661 1.148.018 8.862 0 8.934 0v-10.599h4.117c.019 0-.004 14.598-.004 14.598-.022 3.93-2.406 6.23-6.36 6.174-5.766-.082-13.138 0-13.2 0v-20.772zm34.099.992c2.749-.83 3.983-1.517 3.983-4.107 0-2.59-1.234-3.276-3.983-4.107l-13.568-4.083c-2.775-.81-4.6.454-4.6 3.2v6.333c0 2.746 1.825 4.01 4.6 3.2l13.568-4.436zm3.983 12.215v-6.333c0-2.746-1.825-4.01-4.6-3.2l-13.568 4.436c-2.749.83-3.983 1.517-3.983 4.107 0 2.59 1.234 3.276 3.983 4.107l13.568 4.083c2.775.81 4.6-.454 4.6-3.2z"/>
  <path fill="#f29111" d="M82.033 124.135c2.423 0 4.387-1.964 4.387-4.387V8.252c0-2.423-1.964-4.387-4.387-4.387-2.423 0-4.387 1.964-4.387 4.387v111.496c0 2.423 1.964 4.387 4.387 4.387z"/>
  <path fill="#00758f" d="M97.317 81.252h4.108V65.029l6.36 14.143c.75 1.712 1.777 2.317 3.792 2.317s3.042-.605 3.792-2.317l6.36-14.143v16.223h4.108V65.056c0-1.58-.632-2.345-1.846-2.739-3.227-.947-5.846.3-7.147 3.897l-5.394 12.356-5.394-12.356c-1.301-3.597-3.92-4.844-7.147-3.897-1.214.394-1.846 1.159-1.846 2.739v16.196z"/>
</svg>