<svg xmlns="http://www.w3.org/2000/svg" viewBox="0 0 128 128">
  <path fill="#6DB33F" d="M116.452 6.643a59.104 59.104 0 01-6.837 12.136A64.249 64.249 0 0064.205.667C28.984.667 0 29.63 0 64.809c0 35.198 28.984 64.142 64.205 64.142a64.252 64.252 0 0045.41-18.112 59.104 59.104 0 016.837-12.136c-4.444-4.963-10.015-9.21-16.289-12.469-4.444-2.308-9.16-4.037-14.086-5.158a35.222 35.222 0 01-21.872-32.267c0-19.618 15.985-35.603 35.603-35.603a35.224 35.224 0 0121.872 32.267c4.926-1.121 9.642-2.85 14.086-5.158 6.274-3.259 11.845-7.506 16.289-12.469z"/>
  <path fill="#6DB33F" d="M64.205 22.045c11.765 0 21.29 9.525 21.29 21.29s-9.525 21.29-21.29 21.29-21.29-9.525-21.29-21.29 9.525-21.29 21.29-21.29z"/>
</svg>